<svg width="20" height="18" viewBox="0 0 20 18" fill="none" xmlns="http://www.w3.org/2000/svg">
<path d="M19.2188 13.6875C18.7873 13.6875 18.4375 14.0373 18.4375 14.4688C18.4375 15.3303 17.7366 16.0312 16.875 16.0312H10.9115L9.11523 13.7009L14.785 6.4893L18.6157 11.0593C18.6234 11.0685 18.6312 11.0775 18.6392 11.0864C18.6395 11.0867 18.6397 11.087 18.64 11.0873C18.6409 11.0884 18.6419 11.0894 18.6429 11.0905C18.714 11.1682 18.7976 11.2284 18.888 11.2705C18.9809 11.3139 19.0838 11.3396 19.1923 11.3432C19.1943 11.3433 19.1963 11.3434 19.1982 11.3434C19.1986 11.3434 19.1989 11.3434 19.1993 11.3435C19.2551 11.3449 19.3111 11.3404 19.3663 11.3298L19.3684 11.3294C19.3708 11.3289 19.3732 11.3285 19.3757 11.328C19.3766 11.3278 19.3777 11.3275 19.3787 11.3273C19.3808 11.3269 19.3829 11.3265 19.385 11.326C19.3862 11.3257 19.3873 11.3255 19.3885 11.3252C19.3904 11.3248 19.3923 11.3244 19.3943 11.3239C19.3956 11.3236 19.397 11.3233 19.3983 11.323C19.4 11.3226 19.4018 11.3221 19.4035 11.3218C19.405 11.3214 19.4064 11.321 19.4079 11.3207C19.4095 11.3203 19.4111 11.3198 19.4127 11.3195C19.4142 11.3191 19.4157 11.3187 19.4171 11.3183C19.4188 11.3179 19.4204 11.3174 19.422 11.317C19.4235 11.3166 19.425 11.3162 19.4265 11.3158L19.4311 11.3145C19.4327 11.3141 19.4343 11.3136 19.4359 11.3132C19.4374 11.3127 19.4389 11.3123 19.4405 11.3118C19.4417 11.3115 19.443 11.3111 19.4443 11.3107C19.4462 11.3101 19.4481 11.3095 19.45 11.3089C19.4511 11.3086 19.4521 11.3083 19.4531 11.308C19.4551 11.3074 19.457 11.3068 19.4589 11.3061C19.4601 11.3057 19.4613 11.3054 19.4625 11.305C19.4644 11.3043 19.4663 11.3037 19.4682 11.303C19.4691 11.3027 19.47 11.3024 19.4709 11.3021C19.4731 11.3014 19.4753 11.3007 19.4774 11.2999C19.4782 11.2996 19.4791 11.2993 19.4799 11.2991C19.4821 11.2983 19.4843 11.2975 19.4865 11.2967C19.4872 11.2964 19.4879 11.2962 19.4886 11.2959C19.491 11.295 19.4934 11.2941 19.4958 11.2932L19.497 11.2927C19.4996 11.2917 19.5023 11.2907 19.505 11.2896C19.5051 11.2896 19.5053 11.2895 19.5054 11.2895C19.5083 11.2883 19.5111 11.2872 19.514 11.286C19.5487 11.2718 19.5827 11.255 19.6157 11.2355C19.6161 11.2352 19.6166 11.235 19.6171 11.2347C19.6193 11.2334 19.6215 11.232 19.6238 11.2307C19.6659 11.2051 19.7054 11.1757 19.7418 11.1428C19.7424 11.1422 19.743 11.1416 19.7437 11.1411C19.7443 11.1405 19.7449 11.14 19.7455 11.1395C19.8238 11.068 19.8845 10.9839 19.9268 10.8929C19.9704 10.7997 19.9961 10.6964 19.9995 10.5875C19.9996 10.5861 19.9996 10.5848 19.9996 10.5834C19.9996 10.5825 19.9997 10.5816 19.9997 10.5807C19.9997 10.578 19.9998 10.5754 19.9998 10.5727C19.9998 10.5726 19.9998 10.5726 19.9998 10.5725C19.9999 10.5684 19.9999 10.5643 19.9999 10.5601V3.53125C19.9999 1.80813 18.598 0.40625 16.8749 0.40625H3.125C1.40188 0.40625 0 1.80809 0 3.53125V14.4688C0 16.1919 1.40188 17.5938 3.125 17.5938H10.5224C10.5243 17.5938 10.5261 17.5938 10.5279 17.5938C10.5304 17.5938 10.5328 17.5938 10.5353 17.5938H16.875C18.5981 17.5938 20 16.1919 20 14.4688C20 14.0372 19.6502 13.6875 19.2188 13.6875ZM3.125 16.0312C2.26344 16.0312 1.5625 15.3303 1.5625 14.4688V3.53125C1.5625 2.66969 2.26344 1.96875 3.125 1.96875H16.875C17.7366 1.96875 18.4375 2.66969 18.4375 3.53125V8.41434L15.3643 4.74812C15.2132 4.56773 14.9892 4.46527 14.7534 4.46883C14.5181 4.4725 14.2969 4.58211 14.1515 4.76711L8.13125 12.4244L6.0875 9.77301C5.93961 9.58109 5.71102 9.46871 5.46875 9.46871H5.46836C5.22594 9.46883 4.9973 9.58148 4.84949 9.77363L3.13016 12.0087C2.86711 12.3507 2.93105 12.8413 3.27305 13.1043C3.61512 13.3674 4.10559 13.3034 4.36863 12.9614L5.46938 11.5305L8.93875 16.0312H3.125Z" fill="white"/>
</svg>
