<svg width="14" height="20" viewBox="0 0 14 20" fill="none" xmlns="http://www.w3.org/2000/svg">
<path d="M10.125 14.1406H9.22691L9.49527 11.2422C10.2 11.0131 10.7109 10.3504 10.7109 9.57031V7.61719C10.7109 6.21168 9.92547 4.98621 8.77051 4.35652C9.24414 3.89504 9.53906 3.25102 9.53906 2.53906C9.53906 1.13902 8.40004 0 7 0C5.59996 0 4.46094 1.13902 4.46094 2.53906C4.46094 3.25102 4.75586 3.89504 5.22949 4.35652C4.07449 4.98621 3.28906 6.21168 3.28906 7.61719V9.57031C3.28906 10.3504 3.80004 11.0131 4.50473 11.2422L4.77309 14.1406H3.875C2.25957 14.1406 0.945312 15.4549 0.945312 17.0703C0.945312 18.6857 2.25957 20 3.875 20H10.125C11.7404 20 13.0547 18.6857 13.0547 17.0703C13.0547 15.4549 11.7404 14.1406 10.125 14.1406ZM7 1.17188C7.75387 1.17188 8.36719 1.7852 8.36719 2.53906C8.36719 3.29293 7.75387 3.90625 7 3.90625C6.24613 3.90625 5.63281 3.29293 5.63281 2.53906C5.63281 1.7852 6.24613 1.17188 7 1.17188ZM4.46094 9.57031V7.61719C4.46094 6.21715 5.59996 5.07812 7 5.07812C8.40004 5.07812 9.53906 6.21715 9.53906 7.61719V9.57031C9.53906 9.8934 9.27621 10.1562 8.95312 10.1562H5.04688C4.72379 10.1562 4.46094 9.8934 4.46094 9.57031ZM8.31043 11.3281L7.83305 16.4844H6.16703L5.68961 11.3281H8.31043ZM10.125 18.8281H3.875C2.90574 18.8281 2.11719 18.0396 2.11719 17.0703C2.11719 16.1011 2.90574 15.3125 3.875 15.3125H4.8816L5.04937 17.1243C5.07727 17.4257 5.33012 17.6562 5.63281 17.6562H8.36719C8.66984 17.6562 8.92273 17.4257 8.95066 17.1243L9.1184 15.3125H10.125C11.0943 15.3125 11.8828 16.1011 11.8828 17.0703C11.8828 18.0396 11.0943 18.8281 10.125 18.8281Z" fill="white"/>
</svg>
