<svg width="16" height="16" viewBox="0 0 16 16" fill="none" xmlns="http://www.w3.org/2000/svg">
<path d="M15.0629 0.937688C14.4582 0.333 13.6543 0 12.7992 0C11.9441 0 11.1402 0.333 10.5355 0.937656L1.58879 9.88441C1.51267 9.96053 1.45751 10.055 1.42864 10.1587L0.0233866 15.2074C-0.0372071 15.4252 0.0244491 15.6587 0.18473 15.8181C0.30348 15.9362 0.462605 16 0.625543 16C0.68248 16 0.739918 15.9922 0.796262 15.9762L5.84492 14.5421C6.05792 14.4816 6.22304 14.3129 6.27892 14.0986C6.33479 13.8843 6.27311 13.6565 6.11676 13.4996L2.93389 10.3071L10.35 2.89097L13.108 5.64903L7.43073 11.3109C7.18632 11.5546 7.18579 11.9503 7.42954 12.1947C7.67326 12.4392 8.06904 12.4397 8.31342 12.196L15.0628 5.46497C15.6675 4.86031 16.0005 4.05641 16.0005 3.20131C16.0005 2.34622 15.6675 1.54231 15.0629 0.937688ZM4.48157 13.6299L1.52632 14.4694L2.35398 11.4959L4.48157 13.6299ZM14.1795 4.58047L13.9931 4.76638L11.2339 2.00709L11.4195 1.82153C11.788 1.45297 12.278 1.25 12.7992 1.25C13.3204 1.25 13.8104 1.45297 14.179 1.82156C14.5475 2.19009 14.7505 2.68009 14.7505 3.20131C14.7505 3.72253 14.5475 4.21253 14.1795 4.58047Z" fill="#696969"/>
</svg>
