<svg width="15" height="15" viewBox="0 0 15 15" fill="none" xmlns="http://www.w3.org/2000/svg">
<path d="M8.45221 0.952148C5.27854 0.952148 2.6272 3.22222 2.03133 6.22263L0.786738 4.66676L0 5.29635L2.01472 7.81474C2.11292 7.93714 2.25899 8.00361 2.40809 8.00361C2.48414 8.00361 2.56119 7.98647 2.63323 7.95073L5.65529 6.43969L5.2045 5.5386L2.9838 6.64872C3.3958 3.99735 5.68702 1.95949 8.45221 1.95949C11.507 1.95949 13.9927 4.44513 13.9927 7.49994C13.9927 10.5548 11.507 13.0404 8.45221 13.0404V14.0477C12.0625 14.0477 15 11.1103 15 7.49994C15 3.8896 12.0625 0.952148 8.45221 0.952148Z" fill="#696969"/>
</svg>
